<svg width="146" height="40" viewBox="0 0 146 40" fill="none" xmlns="http://www.w3.org/2000/svg">
<path d="M36.344 16.224H40.024V18H34.104V6.832H36.344V16.224ZM40.8717 13.536C40.8717 12.64 41.0477 11.8453 41.3997 11.152C41.7624 10.4587 42.2478 9.92533 42.8558 9.552C43.4744 9.17867 44.1624 8.992 44.9198 8.992C45.5811 8.992 46.1571 9.12533 46.6478 9.392C47.1491 9.65867 47.5491 9.99467 47.8478 10.4V9.136H50.1038V18H47.8478V16.704C47.5598 17.12 47.1598 17.4667 46.6478 17.744C46.1464 18.0107 45.5651 18.144 44.9038 18.144C44.1571 18.144 43.4744 17.952 42.8558 17.568C42.2478 17.184 41.7624 16.6453 41.3997 15.952C41.0477 15.248 40.8717 14.4427 40.8717 13.536ZM47.8478 13.568C47.8478 13.024 47.7411 12.56 47.5278 12.176C47.3144 11.7813 47.0264 11.4827 46.6638 11.28C46.3011 11.0667 45.9118 10.96 45.4958 10.96C45.0798 10.96 44.6958 11.0613 44.3438 11.264C43.9918 11.4667 43.7038 11.7653 43.4798 12.16C43.2664 12.544 43.1598 13.0027 43.1598 13.536C43.1598 14.0693 43.2664 14.5387 43.4798 14.944C43.7038 15.3387 43.9918 15.6427 44.3438 15.856C44.7064 16.0693 45.0904 16.176 45.4958 16.176C45.9118 16.176 46.3011 16.0747 46.6638 15.872C47.0264 15.6587 47.3144 15.36 47.5278 14.976C47.7411 14.5813 47.8478 14.112 47.8478 13.568ZM60.6595 9.136V18H58.4035V16.88C58.1155 17.264 57.7368 17.568 57.2675 17.792C56.8088 18.0053 56.3075 18.112 55.7635 18.112C55.0702 18.112 54.4568 17.968 53.9235 17.68C53.3902 17.3813 52.9688 16.9493 52.6595 16.384C52.3608 15.808 52.2115 15.1253 52.2115 14.336V9.136H54.4515V14.016C54.4515 14.72 54.6275 15.264 54.9795 15.648C55.3315 16.0213 55.8115 16.208 56.4195 16.208C57.0382 16.208 57.5235 16.0213 57.8755 15.648C58.2275 15.264 58.4035 14.72 58.4035 14.016V9.136H60.6595ZM67.7816 9.008C68.8376 9.008 69.691 9.344 70.3416 10.016C70.9923 10.6773 71.3176 11.6053 71.3176 12.8V18H69.0776V13.104C69.0776 12.4 68.9016 11.8613 68.5496 11.488C68.1976 11.104 67.7176 10.912 67.1096 10.912C66.491 10.912 66.0003 11.104 65.6376 11.488C65.2856 11.8613 65.1096 12.4 65.1096 13.104V18H62.8696V9.136H65.1096V10.24C65.4083 9.856 65.787 9.55733 66.2456 9.344C66.715 9.12 67.227 9.008 67.7816 9.008ZM72.8717 13.536C72.8717 12.64 73.0477 11.8453 73.3997 11.152C73.7624 10.4587 74.2531 9.92533 74.8718 9.552C75.4904 9.17867 76.1784 8.992 76.9358 8.992C77.5118 8.992 78.0611 9.12 78.5838 9.376C79.1064 9.62133 79.5224 9.952 79.8318 10.368V6.16H82.1038V18H79.8318V16.688C79.5544 17.1253 79.1651 17.4773 78.6638 17.744C78.1624 18.0107 77.5811 18.144 76.9198 18.144C76.1731 18.144 75.4904 17.952 74.8718 17.568C74.2531 17.184 73.7624 16.6453 73.3997 15.952C73.0477 15.248 72.8717 14.4427 72.8717 13.536ZM79.8478 13.568C79.8478 13.024 79.7411 12.56 79.5278 12.176C79.3144 11.7813 79.0264 11.4827 78.6638 11.28C78.3011 11.0667 77.9118 10.96 77.4958 10.96C77.0798 10.96 76.6958 11.0613 76.3438 11.264C75.9918 11.4667 75.7038 11.7653 75.4798 12.16C75.2664 12.544 75.1598 13.0027 75.1598 13.536C75.1598 14.0693 75.2664 14.5387 75.4798 14.944C75.7038 15.3387 75.9918 15.6427 76.3438 15.856C76.7064 16.0693 77.0904 16.176 77.4958 16.176C77.9118 16.176 78.3011 16.0747 78.6638 15.872C79.0264 15.6587 79.3144 15.36 79.5278 14.976C79.7411 14.5813 79.8478 14.112 79.8478 13.568ZM86.5315 10.512C86.8195 10.0427 87.1928 9.67467 87.6515 9.408C88.1208 9.14133 88.6542 9.008 89.2515 9.008V11.36H88.6595C87.9555 11.36 87.4222 11.5253 87.0595 11.856C86.7075 12.1867 86.5315 12.7627 86.5315 13.584V18H84.2915V9.136H86.5315V10.512ZM99.2403 9.136L93.7523 22.192H91.3683L93.2883 17.776L89.7363 9.136H92.2483L94.5363 15.328L96.8563 9.136H99.2403ZM106.5 8.64V11.44H110.26V13.216H106.5V16.176H110.74V18H104.26V6.816H110.74V8.64H106.5ZM115.384 10.976V15.264C115.384 15.5627 115.453 15.7813 115.592 15.92C115.741 16.048 115.987 16.112 116.328 16.112H117.368V18H115.96C114.072 18 113.128 17.0827 113.128 15.248V10.976H112.072V9.136H113.128V6.944H115.384V9.136H117.368V10.976H115.384ZM118.403 13.536C118.403 12.64 118.579 11.8453 118.931 11.152C119.294 10.4587 119.779 9.92533 120.387 9.552C121.006 9.17867 121.694 8.992 122.451 8.992C123.112 8.992 123.688 9.12533 124.179 9.392C124.68 9.65867 125.08 9.99467 125.379 10.4V9.136H127.635V18H125.379V16.704C125.091 17.12 124.691 17.4667 124.179 17.744C123.678 18.0107 123.096 18.144 122.435 18.144C121.688 18.144 121.006 17.952 120.387 17.568C119.779 17.184 119.294 16.6453 118.931 15.952C118.579 15.248 118.403 14.4427 118.403 13.536ZM125.379 13.568C125.379 13.024 125.272 12.56 125.059 12.176C124.846 11.7813 124.558 11.4827 124.195 11.28C123.832 11.0667 123.443 10.96 123.027 10.96C122.611 10.96 122.227 11.0613 121.875 11.264C121.523 11.4667 121.235 11.7653 121.011 12.16C120.798 12.544 120.691 13.0027 120.691 13.536C120.691 14.0693 120.798 14.5387 121.011 14.944C121.235 15.3387 121.523 15.6427 121.875 15.856C122.238 16.0693 122.622 16.176 123.027 16.176C123.443 16.176 123.832 16.0747 124.195 15.872C124.558 15.6587 124.846 15.36 125.059 14.976C125.272 14.5813 125.379 14.112 125.379 13.568ZM140.831 9.008C141.919 9.008 142.793 9.344 143.455 10.016C144.127 10.6773 144.463 11.6053 144.463 12.8V18H142.223V13.104C142.223 12.4107 142.047 11.8827 141.695 11.52C141.343 11.1467 140.863 10.96 140.255 10.96C139.647 10.96 139.161 11.1467 138.799 11.52C138.447 11.8827 138.271 12.4107 138.271 13.104V18H136.031V13.104C136.031 12.4107 135.855 11.8827 135.503 11.52C135.151 11.1467 134.671 10.96 134.063 10.96C133.444 10.96 132.953 11.1467 132.591 11.52C132.239 11.8827 132.063 12.4107 132.063 13.104V18H129.823V9.136H132.063V10.208C132.351 9.83467 132.719 9.54133 133.167 9.328C133.625 9.11467 134.127 9.008 134.671 9.008C135.364 9.008 135.983 9.15733 136.527 9.456C137.071 9.744 137.492 10.16 137.791 10.704C138.079 10.192 138.495 9.78133 139.039 9.472C139.593 9.16267 140.191 9.008 140.831 9.008Z" fill="#782BC5"/>
<path d="M5.33899 16.661C8.00848 11.4664 12.2034 11.322 12.2034 11.322" stroke="#782BC5" stroke-width="4" stroke-linecap="round"/>
<path d="M30 22C30 30.2843 23.2843 37 15 37C6.71573 37 0 30.2843 0 22C0 13.7157 6.71573 7 15 7C23.2843 7 30 13.7157 30 22ZM1.6221 22C1.6221 29.3884 7.61159 35.3779 15 35.3779C22.3884 35.3779 28.3779 29.3884 28.3779 22C28.3779 14.6116 22.3884 8.6221 15 8.6221C7.61159 8.6221 1.6221 14.6116 1.6221 22Z" fill="#782BC5"/>
<ellipse cx="14.3644" cy="11.1949" rx="0.635593" ry="0.635593" fill="#782BC5"/>
<path d="M21.626 20.2676L18.9346 19.5146L20.0881 26.6678L13.1673 28.6757C13.1673 28.6757 11.6294 25.1619 11.2705 24.0324C10.0231 25.2455 7.45129 27.1948 4.06781 25.2873C5.86787 32.0721 12.6233 33.9208 18.2938 32.9425C23.9643 31.9643 28.1764 23.2806 26.6243 20.2676C25.0722 17.2545 22.2729 17.7576 22.2729 17.7576C21.8823 19.0126 21.626 20.2676 21.626 20.2676Z" fill="#782BC5" fill-opacity="0.6"/>
<path d="M15.7306 15.7497C15.9376 16.8707 12.0792 18.2716 11.1167 16.8792C10.1542 15.4868 9.19429 17.6321 9.19429 17.6321L6.50289 21.7735L8.68164 23.6559L10.3478 21.7735L11.2705 24.0324L11.2829 24.0135C12.4112 22.2926 14.6088 18.9409 18.0375 18.0086C19.6341 17.5745 22.2729 17.7576 22.2729 17.7576L22.1387 17.6321C22.1387 17.6321 18.0375 15.7498 17.653 15.2477C17.2685 14.7457 15.5235 14.6287 15.7306 15.7497Z" fill="#782BC5" fill-opacity="0.6"/>
<path d="M22.1387 17.6321L23.5043 16.171L23.2675 15.9497L22.9729 15.8145L22.1387 17.6321ZM21.626 20.2676L21.0872 22.1936L23.1557 22.7723L23.5856 20.6678L21.626 20.2676ZM18.9346 19.5146L19.4735 17.5885L16.4624 16.7461L16.9601 19.833L18.9346 19.5146ZM20.0881 26.6678L20.6453 28.5886L22.3442 28.0957L22.0626 26.3494L20.0881 26.6678ZM13.1673 28.6757L11.3351 29.4777L12.0389 31.0856L13.7246 30.5965L13.1673 28.6757ZM10.3478 21.7735L12.1992 21.0172L10.9825 18.0387L8.85011 20.448L10.3478 21.7735ZM8.68164 23.6559L7.3741 25.1693L8.8695 26.4613L10.1793 24.9815L8.68164 23.6559ZM6.50289 21.7735L4.82591 20.6837L3.87531 22.1464L5.19534 23.2869L6.50289 21.7735ZM9.19429 17.6321L10.8713 18.722L10.9562 18.5913L11.0199 18.449L9.19429 17.6321ZM18.0375 18.0086L17.5127 16.0787L18.0375 18.0086ZM4.06781 25.2873L5.05002 23.5451L0.918416 21.2158L2.13469 25.8002L4.06781 25.2873ZM11.2829 24.0135L9.61037 22.9169L9.61037 22.9169L11.2829 24.0135ZM9.47152 18.0164C10.1845 19.0478 11.2933 19.3636 12.0835 19.4388C12.9018 19.5166 13.7337 19.3826 14.4346 19.1733C15.1335 18.9646 15.863 18.6327 16.4512 18.1806C16.7437 17.9557 17.0795 17.6414 17.3364 17.2224C17.6002 16.792 17.8377 16.147 17.6973 15.3865L13.7638 16.1129C13.6751 15.6327 13.8374 15.2767 13.926 15.132C14.0078 14.9987 14.0686 14.9669 14.0135 15.0092C13.9063 15.0916 13.6499 15.2331 13.2899 15.3406C12.9317 15.4476 12.6315 15.4728 12.4621 15.4567C12.2646 15.438 12.5302 15.4068 12.7619 15.7419L9.47152 18.0164ZM17.6973 15.3865C17.7165 15.4906 17.7312 15.6826 17.6649 15.9212C17.5962 16.1685 17.4624 16.3853 17.2953 16.5504C16.9928 16.8493 16.6989 16.8771 16.6788 16.8792C16.6288 16.8844 16.6111 16.8797 16.5889 16.8731C16.5726 16.8682 16.5204 16.8515 16.4439 16.8068C16.3755 16.7669 16.2194 16.6651 16.0651 16.4638L19.2408 14.0317C18.7746 13.4229 18.125 13.1573 17.7337 13.0404C17.2826 12.9057 16.7695 12.8477 16.2611 12.901C15.7826 12.9513 15.0672 13.1286 14.4837 13.7052C13.8029 14.378 13.6106 15.2831 13.7638 16.1129L17.6973 15.3865ZM16.0651 16.4638C16.3401 16.8229 16.7144 17.07 16.845 17.1573C17.054 17.2969 17.295 17.4397 17.5344 17.5746C18.0177 17.8469 18.6023 18.1471 19.15 18.4193C19.7027 18.6939 20.2403 18.951 20.6381 19.1388C20.8375 19.2329 21.0029 19.3102 21.119 19.3641C21.177 19.391 21.2227 19.4122 21.2543 19.4267C21.27 19.434 21.2822 19.4397 21.2907 19.4435C21.2949 19.4455 21.2982 19.447 21.3005 19.448C21.3016 19.4486 21.3025 19.449 21.3032 19.4493C21.3035 19.4494 21.3037 19.4495 21.3039 19.4496C21.3041 19.4497 21.3042 19.4497 21.3042 19.4498C21.3043 19.4498 21.3044 19.4498 22.1387 17.6321C22.9729 15.8145 22.973 15.8145 22.973 15.8145C22.973 15.8145 22.973 15.8145 22.973 15.8145C22.9729 15.8145 22.9728 15.8144 22.9727 15.8143C22.9723 15.8142 22.9717 15.8139 22.9709 15.8135C22.9693 15.8128 22.9666 15.8116 22.9631 15.8099C22.956 15.8067 22.9451 15.8017 22.9307 15.795C22.902 15.7818 22.8593 15.762 22.8044 15.7365C22.6946 15.6855 22.5366 15.6117 22.3455 15.5215C21.9624 15.3407 21.4507 15.0959 20.93 14.8371C20.4043 14.5759 19.8916 14.3115 19.4978 14.0896C19.2986 13.9774 19.1561 13.8908 19.0673 13.8314C18.8999 13.7196 19.0619 13.7981 19.2408 14.0317L16.0651 16.4638ZM22.1649 18.3415L19.4735 17.5885L18.3958 21.4406L21.0872 22.1936L22.1649 18.3415ZM16.9601 19.833L18.1136 26.9862L22.0626 26.3494L20.9091 19.1962L16.9601 19.833ZM19.5308 24.747L12.61 26.755L13.7246 30.5965L20.6453 28.5886L19.5308 24.747ZM8.85011 20.448L7.184 22.3304L10.1793 24.9815L11.8454 23.099L8.85011 20.448ZM9.98919 22.1425L7.81044 20.2601L5.19534 23.2869L7.3741 25.1693L9.98919 22.1425ZM8.17987 22.8633L10.8713 18.722L7.51732 16.5423L4.82591 20.6837L8.17987 22.8633ZM9.19429 17.6321C11.0199 18.449 11.0196 18.4495 11.0194 18.4501C11.0193 18.4502 11.0191 18.4508 11.0189 18.4511C11.0186 18.4518 11.0183 18.4524 11.0181 18.453C11.0175 18.4543 11.017 18.4554 11.0166 18.4564C11.0156 18.4584 11.0149 18.4599 11.0144 18.4611C11.0134 18.4633 11.0131 18.4639 11.0135 18.463C11.0144 18.4611 11.0181 18.4534 11.0243 18.4411C11.037 18.4158 11.058 18.3757 11.0852 18.3293C11.1129 18.282 11.1419 18.2368 11.1697 18.1983C11.1989 18.1579 11.2146 18.1419 11.2127 18.1438C11.2106 18.1459 11.1989 18.1575 11.1768 18.1751C11.1549 18.1924 11.1166 18.2204 11.0614 18.2512C10.9525 18.3121 10.7441 18.4021 10.4575 18.4088C10.3144 18.4122 10.1702 18.3941 10.0316 18.3544C9.89411 18.3151 9.78022 18.2597 9.69143 18.2038C9.5204 18.096 9.45763 17.9963 9.47152 18.0164L12.7619 15.7419C12.3085 15.0859 11.5142 14.3828 10.3631 14.41C9.36247 14.4336 8.68316 15.0148 8.37645 15.3232C8.02662 15.675 7.77765 16.0618 7.63344 16.3081C7.55559 16.441 7.4941 16.5577 7.45057 16.6443C7.42861 16.6879 7.41072 16.725 7.39709 16.7538C7.39027 16.7682 7.38447 16.7807 7.37974 16.791C7.37738 16.7961 7.37527 16.8008 7.37343 16.8048C7.37251 16.8068 7.37166 16.8087 7.37087 16.8105C7.37048 16.8114 7.3701 16.8122 7.36974 16.813C7.36956 16.8134 7.3693 16.814 7.36921 16.8142C7.36896 16.8147 7.36871 16.8153 9.19429 17.6321ZM13.1673 28.6757C14.9995 27.8738 14.9995 27.8738 14.9995 27.8738C14.9995 27.8738 14.9995 27.8738 14.9995 27.8738C14.9995 27.8737 14.9994 27.8736 14.9993 27.8734C14.9992 27.8731 14.9989 27.8725 14.9986 27.8718C14.9979 27.8702 14.9969 27.8678 14.9955 27.8647C14.9927 27.8583 14.9885 27.8487 14.983 27.8361C14.972 27.8107 14.9556 27.7732 14.9345 27.7248C14.8924 27.628 14.8317 27.4881 14.7577 27.3166C14.6095 26.9731 14.4085 26.5043 14.1967 26.0015C13.7559 24.9544 13.3226 23.8863 13.1766 23.4268L9.36441 24.638C9.57729 25.308 10.0924 26.5615 10.5102 27.5538C10.7279 28.0706 10.9338 28.5509 11.0851 28.9016C11.1609 29.0771 11.2231 29.2205 11.2665 29.3203C11.2882 29.3702 11.3053 29.4093 11.3169 29.436C11.3227 29.4493 11.3272 29.4596 11.3303 29.4666C11.3318 29.4701 11.333 29.4728 11.3338 29.4746C11.3342 29.4756 11.3345 29.4763 11.3347 29.4768C11.3348 29.477 11.3349 29.4772 11.335 29.4774C11.335 29.4775 11.3351 29.4775 11.3351 29.4776C11.3351 29.4776 11.3351 29.4777 13.1673 28.6757ZM13.122 23.2761L12.1992 21.0172L8.49627 22.5298L9.41904 24.7887L13.122 23.2761ZM20.773 19.0933L20.9072 19.2188L23.6386 16.2965L23.5043 16.171L20.773 19.0933ZM20.3633 17.1633C20.1503 17.8476 19.9771 18.5211 19.8582 19.0166C19.7983 19.2663 19.7512 19.4751 19.7187 19.623C19.7024 19.697 19.6898 19.7561 19.681 19.7976C19.6766 19.8183 19.6732 19.8347 19.6708 19.8464C19.6696 19.8523 19.6686 19.857 19.6679 19.8605C19.6675 19.8622 19.6672 19.8637 19.667 19.8648C19.6669 19.8654 19.6668 19.8659 19.6667 19.8663C19.6666 19.8665 19.6666 19.8667 19.6666 19.8669C19.6665 19.8669 19.6665 19.8671 19.6665 19.8671C19.6665 19.8672 19.6665 19.8673 21.626 20.2676C23.5856 20.6678 23.5855 20.6679 23.5855 20.668C23.5855 20.668 23.5855 20.6681 23.5855 20.6681C23.5855 20.6682 23.5854 20.6683 23.5854 20.6684C23.5854 20.6685 23.5854 20.6685 23.5854 20.6685C23.5854 20.6684 23.5855 20.668 23.5856 20.6673C23.5859 20.666 23.5864 20.6635 23.5872 20.6599C23.5887 20.6526 23.5912 20.6408 23.5945 20.6248C23.6013 20.5928 23.6118 20.5439 23.6256 20.4807C23.6534 20.3541 23.6948 20.1707 23.7478 19.9498C23.8547 19.5041 24.0049 18.9227 24.1826 18.352L20.3633 17.1633ZM18.5622 19.9386C19.0997 19.7924 19.9431 19.7284 20.7737 19.7202C21.1642 19.7164 21.5111 19.7249 21.7594 19.7344C21.8831 19.7391 21.981 19.744 22.0461 19.7476C22.0786 19.7494 22.1028 19.7508 22.1178 19.7518C22.1253 19.7522 22.1306 19.7526 22.1334 19.7528C22.1348 19.7529 22.1356 19.7529 22.1358 19.7529C22.1359 19.7529 22.1358 19.7529 22.1356 19.7529C22.1355 19.7529 22.1353 19.7529 22.1351 19.7529C22.135 19.7529 22.1349 19.7529 22.1348 19.7529C22.1346 19.7529 22.1344 19.7528 22.2729 17.7576C22.4114 15.7624 22.4112 15.7624 22.411 15.7624C22.4109 15.7624 22.4107 15.7624 22.4105 15.7624C22.4101 15.7624 22.4097 15.7623 22.4093 15.7623C22.4085 15.7622 22.4074 15.7622 22.4062 15.7621C22.4039 15.7619 22.4009 15.7617 22.3972 15.7615C22.39 15.761 22.3802 15.7604 22.368 15.7596C22.3436 15.7581 22.3096 15.756 22.2668 15.7537C22.1813 15.7489 22.0606 15.7429 21.9119 15.7373C21.6156 15.726 21.203 15.7158 20.7342 15.7204C19.8463 15.7292 18.5719 15.7907 17.5127 16.0787L18.5622 19.9386ZM9.87617 22.5986C9.33931 23.1207 8.64517 23.668 7.84716 23.9296C7.13608 24.1627 6.23207 24.2115 5.05002 23.5451L3.0856 27.0295C5.28702 28.2706 7.36065 28.2985 9.09319 27.7306C10.7388 27.1911 11.9543 26.1572 12.6649 25.4662L9.87617 22.5986ZM2.13469 25.8002C3.20167 29.8219 5.78205 32.4337 8.90418 33.8479C11.9649 35.2343 15.4916 35.4555 18.6338 34.9134L17.9538 30.9717C15.4255 31.4078 12.7392 31.1938 10.5546 30.2042C8.43138 29.2425 6.734 27.5375 6.00093 24.7744L2.13469 25.8002ZM18.6338 34.9134C22.3118 34.2789 25.1947 31.2715 26.8921 28.3809C27.7673 26.8907 28.4149 25.2915 28.7315 23.7957C29.0318 22.377 29.1043 20.7145 28.4023 19.3517L24.8464 21.1834C24.9204 21.3271 25.0484 21.8801 24.8182 22.9675C24.6044 23.9779 24.1356 25.1758 23.4429 26.3554C22.0047 28.8044 19.9462 30.6279 17.9538 30.9717L18.6338 34.9134ZM28.4023 19.3517C27.346 17.3011 25.7788 16.342 24.407 15.9571C23.7483 15.7722 23.1624 15.726 22.7339 15.7261C22.518 15.7262 22.3368 15.738 22.1993 15.7516C22.1304 15.7584 22.0719 15.7658 22.025 15.7724C22.0015 15.7757 21.9809 15.7789 21.9632 15.7817C21.9543 15.7831 21.9462 15.7845 21.9389 15.7857C21.9352 15.7864 21.9317 15.787 21.9284 15.7875C21.9268 15.7878 21.9252 15.7881 21.9236 15.7884C21.9228 15.7885 21.9217 15.7887 21.9213 15.7888C21.9202 15.789 21.9191 15.7892 22.2729 17.7576C22.6268 19.7261 22.6257 19.7263 22.6246 19.7265C22.6243 19.7265 22.6232 19.7267 22.6225 19.7269C22.6211 19.7271 22.6198 19.7273 22.6184 19.7276C22.6158 19.728 22.6134 19.7285 22.611 19.7289C22.6064 19.7296 22.6023 19.7303 22.5988 19.7309C22.5918 19.732 22.5871 19.7327 22.5845 19.7331C22.5793 19.7338 22.5825 19.7332 22.5932 19.7322C22.6149 19.73 22.6644 19.7261 22.7352 19.7261C22.8801 19.7261 23.091 19.7423 23.3262 19.8083C23.7421 19.925 24.3506 20.2209 24.8464 21.1834L28.4023 19.3517ZM12.9431 25.129L12.9555 25.1101L9.61035 22.9169L9.59795 22.9358L12.9431 25.129ZM12.9555 25.1101C13.523 24.2445 14.2653 23.1195 15.2427 22.098C16.2217 21.0747 17.3271 20.2744 18.5622 19.9386L17.5127 16.0787C15.3192 16.6751 13.6114 18.0169 12.3525 19.3327C11.0918 20.6504 10.1711 22.0616 9.61037 22.9169L12.9555 25.1101ZM12.943 25.1291C12.9471 25.1229 12.9515 25.1162 12.9555 25.1101L9.61037 22.9169C9.60604 22.9235 9.60218 22.9294 9.59799 22.9358L12.943 25.1291Z" fill="#782BC5"/>
<path d="M35.688 26.864C35.9867 26.3413 36.424 25.9147 37 25.584C37.576 25.2533 38.232 25.088 38.968 25.088C39.7573 25.088 40.4667 25.2747 41.096 25.648C41.7253 26.0213 42.2213 26.5493 42.584 27.232C42.9467 27.904 43.128 28.688 43.128 29.584C43.128 30.4693 42.9467 31.2587 42.584 31.952C42.2213 32.6453 41.72 33.184 41.08 33.568C40.4507 33.952 39.7467 34.144 38.968 34.144C38.2107 34.144 37.544 33.9787 36.968 33.648C36.4027 33.3173 35.976 32.896 35.688 32.384V34H34.232V22.16H35.688V26.864ZM41.64 29.584C41.64 28.9227 41.5067 28.3467 41.24 27.856C40.9733 27.3653 40.6107 26.992 40.152 26.736C39.704 26.48 39.208 26.352 38.664 26.352C38.1307 26.352 37.6347 26.4853 37.176 26.752C36.728 27.008 36.3653 27.3867 36.088 27.888C35.8213 28.3787 35.688 28.9493 35.688 29.6C35.688 30.2613 35.8213 30.8427 36.088 31.344C36.3653 31.8347 36.728 32.2133 37.176 32.48C37.6347 32.736 38.1307 32.864 38.664 32.864C39.208 32.864 39.704 32.736 40.152 32.48C40.6107 32.2133 40.9733 31.8347 41.24 31.344C41.5067 30.8427 41.64 30.256 41.64 29.584ZM58.4205 25.232V34H56.9645V32.704C56.6872 33.152 56.2978 33.504 55.7965 33.76C55.3058 34.0053 54.7618 34.128 54.1645 34.128C53.4818 34.128 52.8685 33.9893 52.3245 33.712C51.7805 33.424 51.3485 32.9973 51.0285 32.432C50.7192 31.8667 50.5645 31.1787 50.5645 30.368V25.232H52.0045V30.176C52.0045 31.04 52.2232 31.7067 52.6605 32.176C53.0978 32.6347 53.6952 32.864 54.4525 32.864C55.2312 32.864 55.8445 32.624 56.2925 32.144C56.7405 31.664 56.9645 30.9653 56.9645 30.048V25.232H58.4205ZM69.5829 34.144C68.9109 34.144 68.3082 34.032 67.7749 33.808C67.2415 33.5733 66.8202 33.2533 66.5109 32.848C66.2015 32.432 66.0309 31.9573 65.9989 31.424H67.5029C67.5455 31.8613 67.7482 32.2187 68.1109 32.496C68.4842 32.7733 68.9695 32.912 69.5669 32.912C70.1215 32.912 70.5589 32.7893 70.8789 32.544C71.1989 32.2987 71.3589 31.9893 71.3589 31.616C71.3589 31.232 71.1882 30.9493 70.8469 30.768C70.5055 30.576 69.9775 30.3893 69.2629 30.208C68.6122 30.0373 68.0789 29.8667 67.6629 29.696C67.2575 29.5147 66.9055 29.2533 66.6069 28.912C66.3189 28.56 66.1749 28.1013 66.1749 27.536C66.1749 27.088 66.3082 26.6773 66.5749 26.304C66.8415 25.9307 67.2202 25.6373 67.7109 25.424C68.2015 25.2 68.7615 25.088 69.3909 25.088C70.3615 25.088 71.1455 25.3333 71.7429 25.824C72.3402 26.3147 72.6602 26.9867 72.7029 27.84H71.2469C71.2149 27.3813 71.0282 27.0133 70.6869 26.736C70.3562 26.4587 69.9082 26.32 69.3429 26.32C68.8202 26.32 68.4042 26.432 68.0949 26.656C67.7855 26.88 67.6309 27.1733 67.6309 27.536C67.6309 27.824 67.7215 28.064 67.9029 28.256C68.0949 28.4373 68.3295 28.5867 68.6069 28.704C68.8949 28.8107 69.2895 28.9333 69.7909 29.072C70.4202 29.2427 70.9322 29.4133 71.3269 29.584C71.7215 29.744 72.0575 29.9893 72.3349 30.32C72.6229 30.6507 72.7722 31.0827 72.7829 31.616C72.7829 32.096 72.6495 32.528 72.3829 32.912C72.1162 33.296 71.7375 33.6 71.2469 33.824C70.7669 34.0373 70.2122 34.144 69.5829 34.144ZM81.1902 23.808C80.9129 23.808 80.6782 23.712 80.4862 23.52C80.2942 23.328 80.1982 23.0933 80.1982 22.816C80.1982 22.5387 80.2942 22.304 80.4862 22.112C80.6782 21.92 80.9129 21.824 81.1902 21.824C81.4569 21.824 81.6809 21.92 81.8622 22.112C82.0542 22.304 82.1502 22.5387 82.1502 22.816C82.1502 23.0933 82.0542 23.328 81.8622 23.52C81.6809 23.712 81.4569 23.808 81.1902 23.808ZM81.8942 25.232V34H80.4382V25.232H81.8942ZM94.2478 25.072C95.3144 25.072 96.1784 25.3973 96.8398 26.048C97.5011 26.688 97.8318 27.616 97.8318 28.832V34H96.3918V29.04C96.3918 28.1653 96.1731 27.4987 95.7358 27.04C95.2984 26.5707 94.7011 26.336 93.9438 26.336C93.1758 26.336 92.5624 26.576 92.1038 27.056C91.6558 27.536 91.4318 28.2347 91.4318 29.152V34H89.9758V25.232H91.4318V26.48C91.7198 26.032 92.1091 25.6853 92.5998 25.44C93.1011 25.1947 93.6504 25.072 94.2478 25.072ZM113.81 29.28C113.81 29.5573 113.794 29.8507 113.762 30.16H106.754C106.807 31.024 107.101 31.7013 107.634 32.192C108.178 32.672 108.834 32.912 109.602 32.912C110.231 32.912 110.754 32.768 111.17 32.48C111.597 32.1813 111.895 31.7867 112.066 31.296H113.634C113.399 32.1387 112.93 32.8267 112.226 33.36C111.522 33.8827 110.647 34.144 109.602 34.144C108.77 34.144 108.023 33.9573 107.362 33.584C106.711 33.2107 106.199 32.6827 105.826 32C105.453 31.3067 105.266 30.5067 105.266 29.6C105.266 28.6933 105.447 27.8987 105.81 27.216C106.173 26.5333 106.679 26.0107 107.33 25.648C107.991 25.2747 108.749 25.088 109.602 25.088C110.434 25.088 111.17 25.2693 111.81 25.632C112.45 25.9947 112.941 26.496 113.282 27.136C113.634 27.7653 113.81 28.48 113.81 29.28ZM112.306 28.976C112.306 28.4213 112.183 27.9467 111.938 27.552C111.693 27.1467 111.357 26.8427 110.93 26.64C110.514 26.4267 110.05 26.32 109.538 26.32C108.802 26.32 108.173 26.5547 107.65 27.024C107.138 27.4933 106.845 28.144 106.77 28.976H112.306ZM124.436 34.144C123.764 34.144 123.161 34.032 122.628 33.808C122.095 33.5733 121.673 33.2533 121.364 32.848C121.055 32.432 120.884 31.9573 120.852 31.424H122.356C122.399 31.8613 122.601 32.2187 122.964 32.496C123.337 32.7733 123.823 32.912 124.42 32.912C124.975 32.912 125.412 32.7893 125.732 32.544C126.052 32.2987 126.212 31.9893 126.212 31.616C126.212 31.232 126.041 30.9493 125.7 30.768C125.359 30.576 124.831 30.3893 124.116 30.208C123.465 30.0373 122.932 29.8667 122.516 29.696C122.111 29.5147 121.759 29.2533 121.46 28.912C121.172 28.56 121.028 28.1013 121.028 27.536C121.028 27.088 121.161 26.6773 121.428 26.304C121.695 25.9307 122.073 25.6373 122.564 25.424C123.055 25.2 123.615 25.088 124.244 25.088C125.215 25.088 125.999 25.3333 126.596 25.824C127.193 26.3147 127.513 26.9867 127.556 27.84H126.1C126.068 27.3813 125.881 27.0133 125.54 26.736C125.209 26.4587 124.761 26.32 124.196 26.32C123.673 26.32 123.257 26.432 122.948 26.656C122.639 26.88 122.484 27.1733 122.484 27.536C122.484 27.824 122.575 28.064 122.756 28.256C122.948 28.4373 123.183 28.5867 123.46 28.704C123.748 28.8107 124.143 28.9333 124.644 29.072C125.273 29.2427 125.785 29.4133 126.18 29.584C126.575 29.744 126.911 29.9893 127.188 30.32C127.476 30.6507 127.625 31.0827 127.636 31.616C127.636 32.096 127.503 32.528 127.236 32.912C126.969 33.296 126.591 33.6 126.1 33.824C125.62 34.0373 125.065 34.144 124.436 34.144ZM138.395 34.144C137.723 34.144 137.121 34.032 136.587 33.808C136.054 33.5733 135.633 33.2533 135.323 32.848C135.014 32.432 134.843 31.9573 134.811 31.424H136.315C136.358 31.8613 136.561 32.2187 136.923 32.496C137.297 32.7733 137.782 32.912 138.379 32.912C138.934 32.912 139.371 32.7893 139.691 32.544C140.011 32.2987 140.171 31.9893 140.171 31.616C140.171 31.232 140.001 30.9493 139.659 30.768C139.318 30.576 138.79 30.3893 138.075 30.208C137.425 30.0373 136.891 29.8667 136.475 29.696C136.07 29.5147 135.718 29.2533 135.419 28.912C135.131 28.56 134.987 28.1013 134.987 27.536C134.987 27.088 135.121 26.6773 135.387 26.304C135.654 25.9307 136.033 25.6373 136.523 25.424C137.014 25.2 137.574 25.088 138.203 25.088C139.174 25.088 139.958 25.3333 140.555 25.824C141.153 26.3147 141.473 26.9867 141.515 27.84H140.059C140.027 27.3813 139.841 27.0133 139.499 26.736C139.169 26.4587 138.721 26.32 138.155 26.32C137.633 26.32 137.217 26.432 136.907 26.656C136.598 26.88 136.443 27.1733 136.443 27.536C136.443 27.824 136.534 28.064 136.715 28.256C136.907 28.4373 137.142 28.5867 137.419 28.704C137.707 28.8107 138.102 28.9333 138.603 29.072C139.233 29.2427 139.745 29.4133 140.139 29.584C140.534 29.744 140.87 29.9893 141.147 30.32C141.435 30.6507 141.585 31.0827 141.595 31.616C141.595 32.096 141.462 32.528 141.195 32.912C140.929 33.296 140.55 33.6 140.059 33.824C139.579 34.0373 139.025 34.144 138.395 34.144Z" fill="#782BC5"/>
</svg>
